HIERARCHY
ROOT Hips
{
	OFFSET 0.00000 0.00000 0.00000
	CHANNELS 6 Xposition Yposition Zposition Zrotation Yrotation Xrotation 
	JOINT LHipJoint
	{
		OFFSET 0 0 0
		CHANNELS 3 Zrotation Yrotation Xrotation
		JOINT LeftUpLeg
		{
			OFFSET 1.37590 -1.78394 0.89329
			CHANNELS 3 Zrotation Yrotation Xrotation
			JOINT LeftLeg
			{
				OFFSET 2.47928 -6.81178 0.00000
				CHANNELS 3 Zrotation Yrotation Xrotation
				JOINT LeftFoot
				{
					OFFSET 2.63345 -7.23535 0.00000
					CHANNELS 3 Zrotation Yrotation Xrotation
					JOINT LeftToeBase
					{
						OFFSET 0.23938 -0.65768 2.27012
						CHANNELS 3 Zrotation Yrotation Xrotation
						End Site
						{
							OFFSET 0.00000 -0.00000 1.18363
						}
					}
				}
			}
		}
	}
	JOINT RHipJoint
	{
		OFFSET 0 0 0
		CHANNELS 3 Zrotation Yrotation Xrotation
		JOINT RightUpLeg
		{
			OFFSET -1.33617 -1.78394 0.89329
			CHANNELS 3 Zrotation Yrotation Xrotation
			JOINT RightLeg
			{
				OFFSET -2.56922 -7.05888 0.00000
				CHANNELS 3 Zrotation Yrotation Xrotation
				JOINT RightFoot
				{
					OFFSET -2.56568 -7.04915 0.00000
					CHANNELS 3 Zrotation Yrotation Xrotation
					JOINT RightToeBase
					{
						OFFSET -0.27533 -0.75646 2.18105
						CHANNELS 3 Zrotation Yrotation Xrotation
						End Site
						{
							OFFSET -0.00000 -0.00000 1.15233
						}
					}
				}
			}
		}
	}
	JOINT LowerBack
	{
		OFFSET 0 0 0
		CHANNELS 3 Zrotation Yrotation Xrotation
		JOINT Spine
		{
			OFFSET 0.06190 2.15152 -0.00935
			CHANNELS 3 Zrotation Yrotation Xrotation
			JOINT Spine1
			{
				OFFSET 0.06334 2.15332 0.00872
				CHANNELS 3 Zrotation Yrotation Xrotation
				JOINT Neck
				{
					OFFSET 0 0 0
					CHANNELS 3 Zrotation Yrotation Xrotation
					JOINT Neck1
					{
						OFFSET -0.04202 1.66908 0.23524
						CHANNELS 3 Zrotation Yrotation Xrotation
						JOINT Head
						{
							OFFSET 0.07510 1.69357 -0.24440
							CHANNELS 3 Zrotation Yrotation Xrotation
							End Site
							{
								OFFSET 0.02556 1.71719 -0.11000
							}
						}
					}
				}
				JOINT LeftShoulder
				{
					OFFSET 0 0 0
					CHANNELS 3 Zrotation Yrotation Xrotation
					JOINT LeftArm
					{
						OFFSET 3.67168 1.26306 -0.41342
						CHANNELS 3 Zrotation Yrotation Xrotation
						JOINT LeftForeArm
						{
							OFFSET 4.68510 -0.00000 -0.00000
							CHANNELS 3 Zrotation Yrotation Xrotation
							JOINT LeftHand
							{
								OFFSET 3.39626 -0.00000 -0.00000
								CHANNELS 3 Zrotation Yrotation Xrotation
								JOINT LeftFingerBase
								{
									OFFSET 0 0 0
									CHANNELS 3 Zrotation Yrotation Xrotation
									JOINT LeftHandIndex1
									{
										OFFSET 0.48608 -0.00000 -0.00000
										CHANNELS 3 Zrotation Yrotation Xrotation
										End Site
										{
											OFFSET 0.39189 -0.00000 -0.00000
										}
									}
								}
								JOINT LThumb
								{
									OFFSET 0 0 0
									CHANNELS 3 Zrotation Yrotation Xrotation
									End Site
									{
										OFFSET 0.39787 -0.00000 0.39787
									}
								}
							}
						}
					}
				}
				JOINT RightShoulder
				{
					OFFSET 0 0 0
					CHANNELS 3 Zrotation Yrotation Xrotation
					JOINT RightArm
					{
						OFFSET -3.04136 1.42992 -0.76390
						CHANNELS 3 Zrotation Yrotation Xrotation
						JOINT RightForeArm
						{
							OFFSET -5.55576 -0.00000 -0.00000
							CHANNELS 3 Zrotation Yrotation Xrotation
							JOINT RightHand
							{
								OFFSET -3.32774 -0.00000 -0.00000
								CHANNELS 3 Zrotation Yrotation Xrotation
								JOINT RightFingerBase
								{
									OFFSET 0 0 0
									CHANNELS 3 Zrotation Yrotation Xrotation
									JOINT RightHandIndex1
									{
										OFFSET -0.50763 -0.00000 -0.00000
										CHANNELS 3 Zrotation Yrotation Xrotation
										End Site
										{
											OFFSET -0.40926 -0.00000 -0.00000
										}
									}
								}
								JOINT RThumb
								{
									OFFSET 0 0 0
									CHANNELS 3 Zrotation Yrotation Xrotation
									End Site
									{
										OFFSET -0.41551 -0.00000 0.41551
									}
								}
							}
						}
					}
				}
			}
		}
	}
}
MOTION
Frames: 17
Frame Time: .0083333
39.8526 17.5515 5.4691 0 0 0 0 0 0 -21 0 0 0 0 0 0 0 0 0 0 0 0 0 0 21 0 0 0 0 0 0 0 0 0 0 0 0 0 0 0 0 0 0 0 0 0 0 -16 0 0 21 0 0 11 0 0 0 -8 0 0 0 0 0 0 0 0 0 0 0 0 0 0 0 0 0 0 0 0 8 0 0 0 0 0 0 0 0 0 0 0 0 0 0 0 0 0
39.8526 17.5515 5.4691 -86.2926 -80.9696 96.2522 0.0000 0.0000 0.0000 -7.1770 -6.2026 -22.6754 4.9238 13.2975 40.4927 0.8363 -2.6026 -16.5957 0.1817 -2.7456 -7.5713 0.0000 0.0000 0.0000 32.8414 4.2443 -10.8913 -1.1741 -6.8777 19.3537 -0.0000 -0.0000 0.0000 -0.0000 -0.0000 0.0000 0.0000 0.0000 0.0000 0.0000 0.0000 0.0000 0.0000 0.0000 0.0000 0.0000 0.0000 0.0000 0.0000 0.0000 0.0000 0.0000 0.0000 0.0000 0.0000 0.0000 0.0000 -0.0000 0.0000 -0.0000 -0.0000 0.0000 -0.0000 -0.0000 -0.0000 0.0000 -0.0000 0.0000 0.0000 -0.0000 0.0000 0.0000 0.0000 0.0000 0.0000 0.0000 0.0000 0.0000 0.0000 -0.0000 -0.0000 0.0000 -0.0000 -0.0000 0.0000 0.0000 0.0000 0.0000 0.0000 0.0000 0.0000 0.0000 0.0000 0.0000 -0.0000 0.0000
39.8164 17.5408 5.4553 -86.2237 -80.8196 95.9866 0.0000 0.0000 0.0000 -6.8630 -6.1624 -23.8271 5.4559 13.8796 42.7571 0.7914 -2.0960 -16.2280 0.2632 -3.3003 -9.1159 0.0000 0.0000 0.0000 33.0885 4.1318 -10.5528 -1.1658 -6.8542 19.2843 -0.0000 -0.0000 0.0000 -0.0000 -0.0000 0.0000 0.0000 0.0000 0.0000 0.0000 0.0000 0.0000 0.0000 0.0000 0.0000 0.0000 0.0000 0.0000 0.0000 0.0000 0.0000 0.0000 0.0000 0.0000 0.0000 0.0000 0.0000 -0.0000 0.0000 -0.0000 -0.0000 0.0000 -0.0000 -0.0000 -0.0000 0.0000 -0.0000 0.0000 0.0000 -0.0000 0.0000 0.0000 0.0000 0.0000 0.0000 0.0000 0.0000 0.0000 0.0000 -0.0000 -0.0000 0.0000 -0.0000 -0.0000 0.0000 0.0000 0.0000 0.0000 0.0000 0.0000 0.0000 0.0000 0.0000 0.0000 -0.0000 0.0000
39.7777 17.5306 5.4449 -86.4676 -80.7284 96.0738 0.0000 0.0000 0.0000 -6.6378 -6.1503 -24.9406 5.9447 14.3746 44.7595 0.7462 -1.4145 -15.9013 0.5925 -4.9279 -13.7029 0.0000 0.0000 0.0000 33.2629 4.0193 -10.2471 -1.1574 -6.8301 19.2131 -0.0000 -0.0000 0.0000 -0.0000 -0.0000 0.0000 0.0000 0.0000 0.0000 0.0000 0.0000 0.0000 0.0000 0.0000 0.0000 0.0000 0.0000 0.0000 0.0000 0.0000 0.0000 0.0000 0.0000 0.0000 0.0000 0.0000 0.0000 -0.0000 0.0000 -0.0000 -0.0000 0.0000 -0.0000 -0.0000 -0.0000 0.0000 -0.0000 0.0000 0.0000 -0.0000 0.0000 0.0000 0.0000 0.0000 0.0000 0.0000 0.0000 0.0000 0.0000 -0.0000 -0.0000 0.0000 -0.0000 -0.0000 0.0000 0.0000 0.0000 0.0000 0.0000 0.0000 0.0000 0.0000 0.0000 0.0000 -0.0000 0.0000
39.7354 17.5242 5.4326 -86.2474 -80.5858 95.6725 0.0000 0.0000 0.0000 -6.3528 -6.0825 -26.0187 6.4305 14.8330 46.6861 0.7171 -0.7854 -15.7525 0.6112 -5.0036 -13.9189 0.0000 0.0000 0.0000 33.5319 3.9825 -9.8064 -1.1392 -6.7783 19.0602 -0.0000 -0.0000 0.0000 -0.0000 -0.0000 0.0000 0.0000 0.0000 0.0000 0.0000 0.0000 0.0000 0.0000 0.0000 0.0000 0.0000 0.0000 0.0000 0.0000 0.0000 0.0000 0.0000 0.0000 0.0000 0.0000 0.0000 0.0000 -0.0000 0.0000 -0.0000 -0.0000 0.0000 -0.0000 -0.0000 -0.0000 0.0000 -0.0000 0.0000 0.0000 -0.0000 0.0000 0.0000 0.0000 0.0000 0.0000 0.0000 0.0000 0.0000 0.0000 -0.0000 -0.0000 0.0000 -0.0000 -0.0000 0.0000 0.0000 0.0000 0.0000 0.0000 0.0000 0.0000 0.0000 0.0000 0.0000 -0.0000 0.0000
39.6884 17.5184 5.4195 -86.2737 -80.4489 95.6052 0.0000 0.0000 0.0000 -6.0405 -6.0413 -27.1356 6.8810 15.2308 48.4227 0.6904 -0.5171 -15.5332 0.7348 -5.4765 -15.2728 0.0000 0.0000 0.0000 33.8240 3.9424 -9.4498 -1.1247 -6.7362 18.9361 -0.0000 -0.0000 0.0000 -0.0000 -0.0000 0.0000 0.0000 0.0000 0.0000 0.0000 0.0000 0.0000 0.0000 0.0000 0.0000 0.0000 0.0000 0.0000 0.0000 0.0000 0.0000 0.0000 0.0000 0.0000 0.0000 0.0000 0.0000 -0.0000 0.0000 -0.0000 -0.0000 0.0000 -0.0000 -0.0000 -0.0000 0.0000 -0.0000 0.0000 0.0000 -0.0000 0.0000 0.0000 0.0000 0.0000 0.0000 0.0000 0.0000 0.0000 0.0000 -0.0000 -0.0000 0.0000 -0.0000 -0.0000 0.0000 0.0000 0.0000 0.0000 0.0000 0.0000 0.0000 0.0000 0.0000 0.0000 -0.0000 0.0000
39.6376 17.5155 5.4068 -85.7909 -80.3008 95.0210 0.0000 0.0000 0.0000 -5.7230 -6.0624 -28.1604 7.2892 15.5707 49.9598 0.6885 -0.4757 -15.5240 0.8339 -5.8256 -16.2793 0.0000 0.0000 0.0000 34.0991 3.9877 -8.9561 -1.0873 -6.6271 18.6151 -0.0000 -0.0000 0.0000 -0.0000 -0.0000 0.0000 0.0000 0.0000 0.0000 0.0000 0.0000 0.0000 0.0000 0.0000 0.0000 0.0000 0.0000 0.0000 0.0000 0.0000 0.0000 0.0000 0.0000 0.0000 0.0000 0.0000 0.0000 -0.0000 0.0000 -0.0000 -0.0000 0.0000 -0.0000 -0.0000 -0.0000 0.0000 -0.0000 0.0000 0.0000 -0.0000 0.0000 0.0000 0.0000 0.0000 0.0000 0.0000 0.0000 0.0000 0.0000 -0.0000 -0.0000 0.0000 -0.0000 -0.0000 0.0000 0.0000 0.0000 0.0000 0.0000 0.0000 0.0000 0.0000 0.0000 0.0000 -0.0000 0.0000
39.5856 17.5138 5.3949 -86.2435 -80.1614 95.4663 0.0000 0.0000 0.0000 -5.4105 -5.9662 -29.2630 7.6402 15.8481 51.2560 0.7239 -1.3217 -15.6788 0.7744 -5.6189 -15.6827 0.0000 0.0000 0.0000 34.3649 4.0603 -8.6256 -1.0730 -6.5848 18.4910 -0.0000 -0.0000 0.0000 -0.0000 -0.0000 0.0000 0.0000 0.0000 0.0000 0.0000 0.0000 0.0000 0.0000 0.0000 0.0000 0.0000 0.0000 0.0000 0.0000 0.0000 0.0000 0.0000 0.0000 0.0000 0.0000 0.0000 0.0000 -0.0000 0.0000 -0.0000 -0.0000 0.0000 -0.0000 -0.0000 -0.0000 0.0000 -0.0000 0.0000 0.0000 -0.0000 0.0000 0.0000 0.0000 0.0000 0.0000 0.0000 0.0000 0.0000 0.0000 -0.0000 -0.0000 0.0000 -0.0000 -0.0000 0.0000 0.0000 0.0000 0.0000 0.0000 0.0000 0.0000 0.0000 0.0000 0.0000 -0.0000 0.0000
39.5318 17.5155 5.3850 -86.5568 -80.0655 95.7873 0.0000 0.0000 0.0000 -5.1279 -5.9283 -30.3069 7.9070 16.0504 52.2269 0.7429 -2.3748 -15.6508 0.6800 -5.2725 -14.6873 0.0000 0.0000 0.0000 34.5661 4.1154 -8.2660 -1.0457 -6.5031 18.2514 -0.0000 -0.0000 0.0000 -0.0000 -0.0000 0.0000 0.0000 0.0000 0.0000 0.0000 0.0000 0.0000 0.0000 0.0000 0.0000 0.0000 0.0000 0.0000 0.0000 0.0000 0.0000 0.0000 0.0000 0.0000 0.0000 0.0000 0.0000 -0.0000 0.0000 -0.0000 -0.0000 0.0000 -0.0000 -0.0000 -0.0000 0.0000 -0.0000 0.0000 0.0000 -0.0000 0.0000 0.0000 0.0000 0.0000 0.0000 0.0000 0.0000 0.0000 0.0000 -0.0000 -0.0000 0.0000 -0.0000 -0.0000 0.0000 0.0000 0.0000 0.0000 0.0000 0.0000 0.0000 0.0000 0.0000 0.0000 -0.0000 0.0000
39.4724 17.5196 5.3760 -86.1693 -80.0235 95.4415 0.0000 0.0000 0.0000 -4.9061 -5.9765 -31.2971 8.0946 16.1884 52.9029 0.7344 -3.2103 -15.4210 0.6452 -5.1384 -14.3037 0.0000 0.0000 0.0000 34.6717 4.1245 -7.8585 -0.9958 -6.3508 17.8057 -0.7948 -0.2663 -16.9480 -1.7972 -8.4303 24.0289 7.3240 -0.5308 -1.0602 4.1332 -0.8819 -0.7714 0.1506 -0.5108 -0.2405 -6.3996 -1.9040 -22.7218 4.0587 -1.3640 15.2411 2.2358 -0.5820 8.5396 0.0000 0.0000 0.0000 -93.8065 -2.1630 2.7142 13.3330 -21.7731 -2.5755 -0.0000 -0.0000 31.0147 13.5445 19.1437 4.5170 -7.1250 0.0000 -0.0000 -14.3841 49.0834 -1.4762 0.0000 0.0000 0.0000 87.8258 5.4896 30.8946 -24.1580 35.3309 -7.7978 0.0000 0.0000 10.4206 -18.3631 -25.2180 8.0498 7.1250 -0.0000 -0.0000 12.2351 -55.9509 -3.3225
39.4151 17.5243 5.3701 -87.0966 -80.1012 96.5082 0.0000 0.0000 0.0000 -4.8395 -5.8846 -32.3650 8.2165 16.2762 53.3388 0.7285 -3.6396 -15.3034 0.6960 -5.3329 -14.8605 0.0000 0.0000 0.0000 34.6194 4.2516 -7.5943 -0.9643 -6.2525 17.5189 -0.7869 -0.2470 -16.8568 -1.9039 -8.6629 24.7465 7.2344 -0.3662 -1.0663 4.0172 -0.6599 -0.7397 0.0814 -0.3960 -0.1935 -6.3624 -1.9592 -22.6816 4.0909 -1.4567 15.0681 2.2263 -0.6186 8.4789 0.0000 0.0000 0.0000 -93.8116 -1.8628 3.1467 13.6562 -22.2411 -2.6966 -0.0000 -0.0000 30.1035 13.4800 19.0941 4.4836 -7.1250 0.0000 -0.0000 -14.4262 49.0251 -1.4597 0.0000 0.0000 0.0000 87.8535 5.5578 30.8943 -24.2002 35.3752 -7.8222 0.0000 0.0000 10.5765 -18.2564 -24.9323 7.9167 7.1250 -0.0000 -0.0000 12.2058 -55.6441 -3.2230
39.3558 17.5339 5.3635 -86.8592 -80.1893 96.3751 0.0000 0.0000 0.0000 -4.7862 -5.9409 -33.3055 8.2670 16.3122 53.5189 0.7271 -3.9011 -15.2622 0.7801 -5.6390 -15.7404 0.0000 0.0000 0.0000 34.5670 4.2557 -7.2639 -0.9227 -6.1197 17.1321 -0.7829 -0.2904 -16.8301 -2.0018 -8.8699 25.3891 7.1416 -0.2748 -1.0593 3.9047 -0.5340 -0.7035 0.0173 -0.3292 -0.1538 -6.4479 -2.0345 -22.6271 4.2534 -1.5655 14.9240 2.2797 -0.6564 8.4288 0.0000 -0.0000 0.0000 -93.8123 -1.5538 3.5239 13.9762 -22.7007 -2.8189 -0.0000 -0.0000 29.1844 13.6232 18.7513 4.4548 -7.1250 0.0000 -0.0000 -14.1655 48.7086 -1.3201 0.0000 -0.0000 0.0000 87.7995 5.3587 31.0299 -24.4725 35.6599 -7.9804 0.0000 0.0000 10.4790 -18.5129 -25.0884 8.0808 7.1250 -0.0000 -0.0000 12.0167 -55.8519 -3.2329
39.2945 17.5451 5.3582 -87.2329 -80.3005 96.8574 0.0000 0.0000 0.0000 -4.7652 -5.8606 -34.1933 8.2341 16.2888 53.4016 0.7158 -4.0505 -15.1268 0.7447 -5.5125 -15.3764 0.0000 0.0000 0.0000 34.4867 4.3340 -6.9088 -0.8850 -5.9967 16.7748 -0.7849 -0.2990 -16.8545 -2.1112 -9.0940 26.0899 7.0729 -0.1917 -1.0080 3.7650 -0.4115 -0.7059 -0.0874 -0.2663 -0.1796 -6.5114 -2.0638 -22.5711 4.3893 -1.6153 14.8668 2.3292 -0.6690 8.4046 0.0000 -0.0000 0.0000 -93.7891 -1.1363 3.9193 14.3492 -23.2318 -2.9645 -0.0000 -0.0000 28.1822 13.7182 19.0647 4.5589 -7.1250 0.0000 -0.0000 -14.1913 49.0314 -1.4372 0.0000 -0.0000 0.0000 87.8408 5.3071 31.2241 -24.6005 35.7929 -8.0551 0.0000 0.0000 10.4820 -18.2957 -24.7114 7.8696 7.1250 -0.0000 -0.0000 12.0595 -55.4313 -3.1209
39.2438 17.5551 5.3482 -85.7976 -80.4769 95.6959 0.0000 0.0000 0.0000 -4.7551 -6.1210 -35.3079 8.1990 16.2637 53.2763 0.7160 -4.1653 -15.1200 0.7203 -5.4234 -15.1203 0.0000 0.0000 0.0000 34.3545 4.3872 -6.7909 -0.8456 -5.8652 16.3938 -0.7827 -0.5048 -16.9080 -2.1331 -9.1381 26.2282 6.8641 -0.1790 -0.9901 3.6466 -0.3791 -0.7935 -0.0931 -0.2511 -0.2780 -6.6211 -2.1175 -22.4589 4.5579 -1.6913 14.7048 2.3928 -0.6929 8.3376 0.0000 0.0000 0.0000 -93.7969 -0.7973 4.2115 14.6673 -23.6807 -3.0911 -0.0000 -0.0000 27.3437 13.8686 19.0975 4.6182 -7.1250 0.0000 -0.0000 -14.0619 49.0860 -1.4428 0.0000 0.0000 0.0000 87.8326 5.2269 31.4190 -24.7407 35.9378 -8.1373 0.0000 0.0000 10.4824 -18.3661 -24.8335 7.9378 7.1250 -0.0000 -0.0000 12.0452 -55.5675 -3.1572
39.1822 17.5684 5.3445 -85.7917 -80.5580 95.8221 0.0000 0.0000 0.0000 -4.7051 -6.0843 -36.0604 8.0339 16.1442 52.6849 0.7209 -3.9904 -15.1871 0.7600 -5.5674 -15.5343 0.0000 0.0000 0.0000 34.3194 4.5038 -6.4093 -0.8029 -5.7187 15.9705 -0.7815 -0.5964 -16.9304 -2.2517 -9.3717 26.9653 6.8142 -0.0865 -0.9410 3.5236 -0.2457 -0.7989 -0.1912 -0.1834 -0.3048 -6.7197 -2.1713 -22.3478 4.7179 -1.7693 14.5497 2.4514 -0.7183 8.2736 -0.0000 0.0000 0.0000 -93.7972 -0.4136 4.6531 15.0620 -24.2324 -3.2513 -0.0000 -0.0000 26.3294 14.0091 19.1468 4.6782 -7.1250 0.0000 -0.0000 -13.9476 49.1554 -1.4549 -0.0000 0.0000 0.0000 87.8294 5.0973 31.6073 -24.9763 36.1798 -8.2759 0.0000 0.0000 10.4032 -18.8124 -24.9213 8.1690 7.1250 -0.0000 -0.0000 11.6261 -55.7454 -3.0955
39.1192 17.5782 5.3448 -87.0878 -80.6183 97.3314 0.0000 0.0000 0.0000 -4.6249 -5.9180 -36.8554 7.8099 15.9776 51.8750 0.7134 -3.5477 -15.1488 0.7701 -5.6034 -15.6380 0.0000 0.0000 0.0000 34.2703 4.5653 -6.2009 -0.7741 -5.6177 15.6790 -0.7805 -0.5298 -16.8944 -2.2438 -9.3564 26.9166 6.8099 0.0873 -0.9443 3.3922 -0.0075 -0.8479 -0.3225 -0.0650 -0.3410 -6.8253 -2.2394 -22.2364 4.8742 -1.8651 14.4506 2.5080 -0.7536 8.2300 0.0000 -0.0000 0.0000 -93.7986 -0.0323 5.0161 15.4426 -24.7591 -3.4092 -0.0000 -0.0000 25.4762 14.0686 19.5111 4.7844 -7.1250 0.0000 -0.0000 -14.0271 49.5240 -1.5927 0.0000 -0.0000 0.0000 87.8060 4.9080 31.8151 -25.2400 36.4483 -8.4321 0.0000 0.0000 10.3320 -19.0114 -24.7305 8.2023 7.1250 -0.0000 -0.0000 11.3301 -55.5940 -2.9734
39.0547 17.5903 5.3408 -86.6681 -80.7082 97.0709 0.0000 0.0000 0.0000 -4.5316 -5.9755 -37.4476 7.5085 15.7456 50.7725 0.6980 -3.1050 -15.0349 0.7188 -5.4177 -15.1038 0.0000 0.0000 0.0000 34.2297 4.5900 -5.8527 -0.7291 -5.4557 15.2130 -0.7791 -0.6811 -16.9380 -2.2832 -9.4326 27.1582 6.7618 0.1457 -0.8947 3.2621 0.0823 -0.8855 -0.4293 -0.0206 -0.4028 -6.8348 -2.2954 -22.0749 4.9618 -1.9606 14.2122 2.5241 -0.7904 8.1294 0.0000 -0.0000 0.0000 -93.7518 0.3777 5.4734 15.8628 -25.3343 -3.5871 -0.0000 -0.0000 24.4148 14.0163 19.3822 4.7358 -7.1250 0.0000 -0.0000 -14.0282 49.3889 -1.5455 0.0000 -0.0000 0.0000 87.8028 4.7431 32.1310 -25.5357 36.7465 -8.6084 0.0000 0.0000 10.2194 -19.0156 -24.7174 8.2002 7.1250 -0.0000 -0.0000 11.3197 -55.5818 -2.9673
